<svg width="402" height="27" viewBox="0 0 402 27" fill="none" xmlns="http://www.w3.org/2000/svg">
<path d="M134.591 25.2298V1.26533H138.516V13.3808L149.74 1.26533H154.33L144.568 11.6486L154.82 25.2298H150.333L142.032 14.3341L138.516 18.0548V25.2298H134.591ZM124.798 25.2298V1.26533H128.723V25.2298H124.798ZM98.7618 25.2298V1.26533H102.411L114.995 18.5468H115.128L114.995 1.26533H118.951V25.2298H115.342L102.687 8.02008H102.554L102.687 25.2298H98.7618ZM76.2218 4.56583V1.26533H96.5844V4.56583H88.3555V25.2298H84.42V4.56583H76.2218ZM54.2746 4.56583V1.26533H74.6373V4.56583H66.4084V25.2298H62.4729V4.56583H54.2746ZM31.6529 15.6973V1.26533H35.5782V15.6563C35.5782 19.8076 37.5613 22.1651 41.5889 22.1651C45.6573 22.1651 47.6098 19.8076 47.6098 15.6563V1.26533H51.5351V15.6973C51.5351 22.9646 47.4667 25.6501 41.5889 25.6501C35.752 25.6501 31.6529 22.9646 31.6529 15.6973ZM0.127529 25.2298V1.26533H5.19776L13.2324 19.8998H13.3347L21.2569 1.26533H26.2658V25.2298H22.3404L22.6471 6.97458H22.5142L14.7249 25.2298H11.6991L3.91998 7.29233H3.77687L4.05287 25.2298H0.127529ZM381.744 13.2476C381.744 18.4136 384.872 22.1753 389.594 22.1753C394.358 22.1753 397.486 18.3726 397.486 13.2476C397.486 8.13283 394.358 4.33008 389.594 4.33008C384.872 4.33008 381.744 8.09183 381.744 13.2476ZM377.675 13.2476C377.675 6.10333 382.398 0.845084 389.594 0.845084C396.648 0.845084 401.554 6.10333 401.554 13.2476C401.554 20.3918 396.648 25.6603 389.594 25.6603C382.398 25.6603 377.675 20.3918 377.675 13.2476ZM369.272 25.2401V1.25508H373.198V25.2401H369.272ZM352.028 4.60683H348.174V21.8883H352.028C358.396 21.8883 360.716 17.8806 360.716 13.2476C360.716 8.61458 358.396 4.60683 352.028 4.60683ZM344.248 25.2401V1.25508H352.212C360.512 1.25508 364.826 6.27758 364.826 13.2476C364.826 20.2176 360.512 25.2401 352.212 25.2401H344.248ZM318.979 15.6973V1.25508H322.904V15.6563C322.904 19.8076 324.888 22.1753 328.915 22.1753C332.984 22.1753 334.936 19.8076 334.936 15.6563V1.25508H338.861V15.6973C338.861 22.9748 334.793 25.6603 328.915 25.6603C323.078 25.6603 318.979 22.9748 318.979 15.6973ZM295.897 4.57608V1.25508H316.26V4.57608H308.031V25.2401H304.096V4.57608H295.897ZM274.594 18.4136H278.489C278.489 20.8838 280.605 22.5956 284.05 22.5956C287.627 22.5956 289.744 21.0888 289.744 18.5468C289.744 12.6223 274.972 17.3271 274.972 7.95858C274.972 3.83808 278.519 0.845084 284.08 0.845084C289.437 0.845084 293.045 3.45883 293.045 7.71258H289.192C289.192 5.27308 287.004 3.90983 284.08 3.90983C281.167 3.90983 278.908 5.17058 278.908 7.56908C278.908 13.4628 293.781 8.68633 293.781 18.2393C293.781 22.6571 290.234 25.6603 284.05 25.6603C277.968 25.6603 274.594 22.8006 274.594 18.4136ZM258.433 4.60683H254.579V21.8883H258.433C264.801 21.8883 267.122 17.8806 267.122 13.2476C267.122 8.61458 264.801 4.60683 258.433 4.60683ZM250.644 25.2401V1.25508H258.607C266.907 1.25508 271.221 6.27758 271.221 13.2476C271.221 20.2176 266.907 25.2401 258.607 25.2401H250.644ZM224.618 25.2401V1.25508H228.267L240.851 18.5468H240.984L240.851 1.25508H244.807V25.2401H241.198L228.543 8.02008H228.41L228.543 25.2401H224.618ZM210.153 5.16033H210.02L206.126 16.1381H214.017L210.153 5.16033ZM198.929 25.2401L207.823 1.25508H212.453L221.347 25.2401H217.207L215.162 19.4078H204.94L202.896 25.2401H198.929ZM181.118 3.10726L189.705 11.6353L179.928 11.666L179.912 11.6353L163.301 11.6865L171.836 3.08676L169.363 0.637009L159.11 10.9793L156.656 13.4495L158.404 15.1818L159.12 15.8993L169.455 26.1698L171.908 23.6995L163.321 15.1613L173.114 15.1408L173.13 15.1613L189.725 15.1203L181.19 23.7098L183.663 26.1698L194.642 15.0998L196.37 13.3573L194.622 11.625L183.571 0.637009L181.118 3.10726Z" fill="#E94708"/>
</svg>
