<svg width="18" height="9" viewBox="0 0 18 9" fill="none" xmlns="http://www.w3.org/2000/svg">
<path fill-rule="evenodd" clip-rule="evenodd" d="M9.46967 0.21967C9.76256 -0.0732233 10.2374 -0.0732233 10.5303 0.21967L14.2803 3.96967C14.5732 4.26256 14.5732 4.73744 14.2803 5.03033L10.5303 8.78033C10.2374 9.07322 9.76256 9.07322 9.46967 8.78033C9.17678 8.48744 9.17678 8.01256 9.46967 7.71967L12.6893 4.5L9.46967 1.28033C9.17678 0.987437 9.17678 0.512563 9.46967 0.21967Z" fill="#7CC9FF" fill-opacity="0.41"/>
<path fill-rule="evenodd" clip-rule="evenodd" d="M4.21967 0.21967C4.51256 -0.0732233 4.98744 -0.0732233 5.28033 0.21967L9.03033 3.96967C9.32322 4.26256 9.32322 4.73744 9.03033 5.03033L5.28033 8.78033C4.98744 9.07322 4.51256 9.07322 4.21967 8.78033C3.92678 8.48744 3.92678 8.01256 4.21967 7.71967L7.43934 4.5L4.21967 1.28033C3.92678 0.987437 3.92678 0.512563 4.21967 0.21967Z" fill="#7CC9FF" fill-opacity="0.41"/>
</svg>
