<svg width="52" height="44" viewBox="0 0 52 44" fill="none" xmlns="http://www.w3.org/2000/svg">
<path d="M37.3988 36.5498V14.4499H3.39893V36.5498C3.39893 37.4887 4.15999 38.2498 5.09892 38.2498H35.6988C36.6377 38.2498 37.3988 37.4887 37.3988 36.5498Z" fill="#289BC3"/>
<path d="M13.6015 33.1497H10.2015C7.38486 33.1497 5.10156 35.433 5.10156 38.2497C5.10156 41.0664 7.38486 43.3497 10.2015 43.3497H13.6015C16.4182 43.3497 18.7015 41.0664 18.7015 38.2497C18.7015 35.433 16.4182 33.1497 13.6015 33.1497Z" fill="#32283C"/>
<path d="M44.1987 33.1498H40.7987C37.982 33.1498 35.6987 35.4331 35.6987 38.2498C35.6987 41.0664 37.982 43.3497 40.7987 43.3497H44.1987C47.0154 43.3497 49.2987 41.0664 49.2987 38.2498C49.2987 35.4331 47.0154 33.1498 44.1987 33.1498Z" fill="#32283C"/>
<path d="M40.7987 43.3497C43.6153 43.3497 45.8987 41.0664 45.8987 38.2498C45.8987 35.4331 43.6153 33.1498 40.7987 33.1498C37.9821 33.1498 35.6987 35.4331 35.6987 38.2498C35.6987 41.0664 37.9821 43.3497 40.7987 43.3497Z" fill="#555A6E"/>
<path d="M40.7976 39.9497C41.7365 39.9497 42.4976 39.1886 42.4976 38.2497C42.4976 37.3109 41.7365 36.5497 40.7976 36.5497C39.8588 36.5497 39.0977 37.3109 39.0977 38.2497C39.0977 39.1886 39.8588 39.9497 40.7976 39.9497Z" fill="#E6E6EB"/>
<path d="M30.601 33.1498H27.201C24.3844 33.1498 22.1011 35.4331 22.1011 38.2498C22.1011 41.0664 24.3844 43.3497 27.201 43.3497H30.601C33.4177 43.3497 35.701 41.0664 35.701 38.2498C35.701 35.4331 33.4177 33.1498 30.601 33.1498Z" fill="#32283C"/>
<path d="M47.6022 16.1499H22.1023C21.1634 16.1499 20.4023 16.911 20.4023 17.8499V19.5499H47.6022C48.5411 19.5499 49.3022 18.7888 49.3022 17.8499C49.3022 16.911 48.5411 16.1499 47.6022 16.1499Z" fill="#A5C3DC"/>
<path d="M30.6023 16.1499H22.1023C21.1634 16.1499 20.4023 16.911 20.4023 17.8499V19.5499H30.6023C31.5412 19.5499 32.3023 18.7888 32.3023 17.8499C32.3023 16.911 31.5412 16.1499 30.6023 16.1499Z" fill="#D7E6F0"/>
<path d="M20.4023 19.5498H47.6022V28.0498H20.4023V19.5498Z" fill="#463C4B"/>
<path d="M20.4023 19.5498H30.6023V28.0498H20.4023V19.5498Z" fill="#555A6E"/>
<path d="M49.3022 38.2497H22.1023C21.1634 38.2497 20.4023 37.4886 20.4023 36.5497V28.0497H47.6022C49.4799 28.0497 51.0022 29.572 51.0022 31.4497V36.5497C51.0022 37.4886 50.2411 38.2497 49.3022 38.2497Z" fill="#A5C3DC"/>
<path d="M32.3023 38.2497H22.1023C21.1634 38.2497 20.4023 37.4886 20.4023 36.5497V28.0497H30.6023C32.48 28.0497 34.0023 29.572 34.0023 31.4497V36.5497C34.0023 37.4886 33.2412 38.2497 32.3023 38.2497Z" fill="#D7E6F0"/>
<path d="M38.1072 31.4498H46.8905C48.2206 31.4498 49.2988 32.528 49.2988 33.8581C49.2988 35.1882 48.2205 36.2665 46.8904 36.2665H38.1071C36.7771 36.2665 35.6987 35.1883 35.6987 33.8581C35.6988 32.528 36.7771 31.4498 38.1072 31.4498Z" fill="#555A6E"/>
<path d="M38.1109 35.1331C38.8151 35.1331 39.3859 34.5623 39.3859 33.8581C39.3859 33.154 38.8151 32.5831 38.1109 32.5831C37.4068 32.5831 36.8359 33.154 36.8359 33.8581C36.8359 34.5623 37.4068 35.1331 38.1109 35.1331Z" fill="#00D2D2"/>
<path d="M46.8883 35.1331C47.5924 35.1331 48.1633 34.5623 48.1633 33.8581C48.1633 33.154 47.5924 32.5831 46.8883 32.5831C46.1841 32.5831 45.6133 33.154 45.6133 33.8581C45.6133 34.5623 46.1841 35.1331 46.8883 35.1331Z" fill="#00D2D2"/>
<path d="M16.1497 -6.10352e-05H11.0497C10.5803 -6.10352e-05 10.1997 0.380524 10.1997 0.849935C10.1997 1.31934 10.5803 1.69993 11.0497 1.69993C14.3305 1.69993 16.9997 4.36913 16.9997 7.6499C16.9997 8.11931 17.3803 8.4999 17.8497 8.4999H22.9496C23.4191 8.4999 23.7996 8.11931 23.7996 7.6499C23.7996 3.43169 20.3679 -6.10352e-05 16.1497 -6.10352e-05Z" fill="#A5C3DC"/>
<path d="M29.7494 -6.10352e-05H24.6495C20.4313 -6.10352e-05 16.9995 3.43169 16.9995 7.6499C16.9995 8.11931 17.3801 8.4999 17.8495 8.4999H22.9495C23.4189 8.4999 23.7995 8.11931 23.7995 7.6499C23.7995 4.36913 26.4687 1.69993 29.7494 1.69993C30.2189 1.69993 30.5994 1.31934 30.5994 0.849935C30.5994 0.380524 30.2189 -6.10352e-05 29.7494 -6.10352e-05Z" fill="#A5C3DC"/>
<path d="M33.1497 -6.10352e-05H28.0497C27.5803 -6.10352e-05 27.1997 0.380524 27.1997 0.849935C27.1997 1.31934 27.5803 1.69993 28.0497 1.69993C29.4558 1.69993 30.5997 2.84381 30.5997 4.24992C30.5997 5.65602 29.4558 6.7999 28.0497 6.7999C27.5803 6.7999 27.1997 7.18049 27.1997 7.6499C27.1997 8.11931 27.5803 8.4999 28.0497 8.4999H33.1497C35.4931 8.4999 37.3997 6.59335 37.3997 4.24992C37.3997 1.90648 35.4931 -6.10352e-05 33.1497 -6.10352e-05Z" fill="#A5C3DC"/>
<path d="M12.7489 6.7999C11.3428 6.7999 10.1989 5.65602 10.1989 4.24992C10.1989 2.84381 11.3428 1.69993 12.7489 1.69993C13.2183 1.69993 13.5989 1.31934 13.5989 0.849935C13.5989 0.380524 13.2183 -6.10352e-05 12.7489 -6.10352e-05H7.6489C5.30547 -6.10352e-05 3.39893 1.90648 3.39893 4.24992C3.39893 6.59335 5.30547 8.4999 7.6489 8.4999H12.7489C13.2183 8.4999 13.5989 8.11931 13.5989 7.6499C13.5989 7.18049 13.2183 6.7999 12.7489 6.7999Z" fill="#A5C3DC"/>
<path d="M39.0998 8.49988H1.69999C0.761065 8.49988 0 9.26094 0 10.1999V12.7499C0 13.6888 0.761065 14.4498 1.69999 14.4498H39.0998C40.0387 14.4498 40.7998 13.6888 40.7998 12.7499V10.1999C40.7998 9.26094 40.0387 8.49988 39.0998 8.49988Z" fill="#289BC3"/>
<path d="M18.6988 38.2497H5.09892C4.15999 38.2497 3.39893 37.4886 3.39893 36.5497V19.5498H20.3988V36.5497C20.3988 37.4886 19.6378 38.2497 18.6988 38.2497Z" fill="#00D2D2"/>
<path d="M20.3999 8.49988H1.69999C0.761065 8.49988 0 9.26094 0 10.1999V12.7499C0 13.6888 0.761065 14.4498 1.69999 14.4498H20.3999C21.3388 14.4498 22.0999 13.6888 22.0999 12.7499V10.1999C22.0999 9.26094 21.3388 8.49988 20.3999 8.49988Z" fill="#00D2D2"/>
<path d="M11.8978 12.7499C11.8978 13.6888 12.6589 14.4498 13.5978 14.4498H8.49784C7.55892 14.4498 6.79785 13.6888 6.79785 12.7499V10.1999C6.79785 9.26094 7.55892 8.49988 8.49784 8.49988H13.5978C12.6589 8.49988 11.8978 9.26094 11.8978 10.1999V12.7499Z" fill="#D7E6F0"/>
<path d="M28.9031 12.7499C28.9031 13.6888 28.1421 14.4499 27.2031 14.4499H32.3031C33.242 14.4499 34.0031 13.6888 34.0031 12.7499V10.1999C34.0031 9.261 33.242 8.49994 32.3031 8.49994H27.2031C28.1421 8.49994 28.9031 9.261 28.9031 10.1999V12.7499Z" fill="#A5C3DC"/>
<path d="M28.0529 8.4999H17.0029V7.6499C17.0029 3.43169 20.4347 -6.10352e-05 24.6529 -6.10352e-05H28.0529C30.3963 -6.10352e-05 32.3028 1.90648 32.3028 4.24992C32.3028 6.59335 30.3963 8.4999 28.0529 8.4999ZM18.7635 6.7999H28.0529C29.459 6.7999 30.6029 5.65602 30.6029 4.24992C30.6029 2.84381 29.459 1.69993 28.0529 1.69993H24.6529C21.6606 1.69993 19.1771 3.92022 18.7635 6.7999Z" fill="#D7E6F0"/>
<path d="M18.6988 8.4999H7.6489C5.30547 8.4999 3.39893 6.59335 3.39893 4.24992C3.39893 1.90648 5.30547 -6.10352e-05 7.6489 -6.10352e-05H11.0489C15.2671 -6.10352e-05 18.6988 3.43169 18.6988 7.6499V8.4999ZM7.6489 1.69993C6.2428 1.69993 5.09892 2.84381 5.09892 4.24992C5.09892 5.65602 6.2428 6.7999 7.6489 6.7999H16.9383C16.5246 3.92022 14.0411 1.69993 11.0489 1.69993H7.6489Z" fill="#D7E6F0"/>
<path d="M27.201 43.3497C30.0177 43.3497 32.301 41.0664 32.301 38.2498C32.301 35.4331 30.0177 33.1498 27.201 33.1498C24.3844 33.1498 22.1011 35.4331 22.1011 38.2498C22.1011 41.0664 24.3844 43.3497 27.201 43.3497Z" fill="#555A6E"/>
<path d="M27.2 39.9497C28.1389 39.9497 28.9 39.1886 28.9 38.2497C28.9 37.3109 28.1389 36.5497 27.2 36.5497C26.2611 36.5497 25.5 37.3109 25.5 38.2497C25.5 39.1886 26.2611 39.9497 27.2 39.9497Z" fill="#E6E6EB"/>
<path d="M10.2015 43.3497C13.0182 43.3497 15.3015 41.0663 15.3015 38.2497C15.3015 35.4331 13.0182 33.1497 10.2015 33.1497C7.3849 33.1497 5.10156 35.4331 5.10156 38.2497C5.10156 41.0663 7.3849 43.3497 10.2015 43.3497Z" fill="#555A6E"/>
<path d="M10.1966 39.9497C11.1355 39.9497 11.8966 39.1886 11.8966 38.2497C11.8966 37.3109 11.1355 36.5497 10.1966 36.5497C9.25769 36.5497 8.49658 37.3109 8.49658 38.2497C8.49658 39.1886 9.25769 39.9497 10.1966 39.9497Z" fill="#E6E6EB"/>
</svg>
